<svg id="Ebene_2" data-name="Ebene 2"
    xmlns="http://www.w3.org/2000/svg"
    xmlns:xlink="http://www.w3.org/1999/xlink" viewBox="0 0 2834.65 2834.65"
    width="320px">
    <defs>
        <style>.cls-1{fill:url(#Unbenannter_Verlauf_42);}.cls-2{fill:#1d1d1b;}.cls-3{fill:url(#Unbenannter_Verlauf_48);}</style>
        <linearGradient id="Unbenannter_Verlauf_42" x1="1108.63" y1="2292.14" x2="925.13" y2="897.56" gradientUnits="userSpaceOnUse">
            <stop offset="0" stop-color="#884ff1"/>
            <stop offset="0.12" stop-color="#884ff1"/>
            <stop offset="0.31" stop-color="#884ff1"/>
            <stop offset="0.5" stop-color="#a86ef7"/>
            <stop offset="0.68" stop-color="#bf85fc"/>
            <stop offset="0.85" stop-color="#cc92fe"/>
            <stop offset="1" stop-color="#d197ff"/>
        </linearGradient>
        <linearGradient id="Unbenannter_Verlauf_48" x1="698.74" y1="1783.89" x2="2120.19" y2="2364.54" gradientUnits="userSpaceOnUse">
            <stop offset="0.19" stop-color="#884ff1"/>
            <stop offset="0.29" stop-color="#884ff1"/>
            <stop offset="0.44" stop-color="#884ff1"/>
            <stop offset="0.59" stop-color="#a86ef7"/>
            <stop offset="0.74" stop-color="#bf85fc"/>
            <stop offset="0.88" stop-color="#cc92fe"/>
            <stop offset="1" stop-color="#d197ff"/>
        </linearGradient>
    </defs>
    <path class="cls-1" d="M1308.29,2349.73H668.21q1.5-787.43,3-1574.86C701,718.23,819.05,510,1065.29,431.86c95.31-30.25,181.27-31.95,243-27Z"/>
    <circle class="cls-2" cx="1373.53" cy="2074.66" r="258.38"/>
    <path class="cls-2" d="M670.14,1263.7,667,2353h718.27l0-375.18c-61.88-5.53-300.38-34.15-496.19-236-184.93-190.64-213.1-413.46-219-478.16"/>
    <path class="cls-3" d="M669.71,1411.12c2.64,17.46,6.07,36,10.53,55.44,5.79,25.28,12.5,48.51,19.52,69.57,0,0,45.49,141.77,129.48,263.52,33.33,48.32,280.62,406.76,556.32,382.8,171.53-14.91,153.72-160.43,387.27-208,146.58-29.88,279.32,1.8,378.06-88.76a240,240,0,0,0,52.25-69.35v536.07L667,2353Z"/>
</svg>