<?xml version="1.0" encoding="UTF-8" standalone="no"?>
<svg
   xmlns:dc="http://purl.org/dc/elements/1.1/"
   xmlns:cc="http://creativecommons.org/ns#"
   xmlns:rdf="http://www.w3.org/1999/02/22-rdf-syntax-ns#"
   xmlns:svg="http://www.w3.org/2000/svg"
   xmlns="http://www.w3.org/2000/svg"
   id="svg39"
   xml:space="preserve"
   enable-background="new 0 0 1024 1024"
   viewBox="0 0 1024 1024"
   y="0px"
   x="0px"
   version="1.1"><metadata
     id="metadata45"><rdf:RDF><cc:Work
         rdf:about=""><dc:format>image/svg+xml</dc:format><dc:type
           rdf:resource="http://purl.org/dc/dcmitype/StillImage" /></cc:Work></rdf:RDF></metadata><defs
     id="defs43" /><g
     id="g37"
     transform="translate(0,128)"><g
       style="stroke-miterlimit:2"
       transform="matrix(1.1245,0,0,1.1245,-63.719,-48.301)"
       stroke-miterlimit="2"
       id="logo-group"><path
         d="m 290.4,445.24 c 1.6016,0.90272 3.407,1.3395 5.4163,1.3395 1.456,0 2.7955,-0.23296 4.0477,-0.728 1.2522,-0.46592 2.3296,-1.1939 3.2032,-2.1258 l -0.93184,-0.96096 c -1.6598,1.6307 -3.7565,2.4461 -6.2608,2.4461 -1.7181,0 -3.2614,-0.37856 -4.6592,-1.1648 -1.3978,-0.75712 -2.5043,-1.8346 -3.2906,-3.2032 -0.81536,-1.3686 -1.1939,-2.912 -1.1939,-4.601 0,-1.689 0.37856,-3.2032 1.1939,-4.5718 0.78624,-1.3686 1.8928,-2.4461 3.2906,-3.2323 1.3978,-0.75712 2.9411,-1.1648 4.6592,-1.1648 2.5334,0 4.6301,0.81536 6.2608,2.417 l 0.93184,-0.96096 c -0.8736,-0.93184 -1.951,-1.6307 -3.1741,-2.0966 -1.2522,-0.46592 -2.6208,-0.728 -4.0768,-0.728 -2.0093,0 -3.8147,0.46592 -5.4163,1.3395 -1.6016,0.90272 -2.8538,2.1258 -3.7856,3.6982 -0.93184,1.5725 -1.3686,3.3488 -1.3686,5.2998 0,1.9802 0.4368,3.7274 1.3686,5.2998 0.93184,1.5725 2.184,2.8246 3.7856,3.6982 z"
         style="font-variant-ligatures:none;fill:#ffffff;stroke:#ffffff;stroke-width:1.82000005"
         id="path8202" /><path
         d="m 310.78,445.56 c 1.1648,0.66976 2.4461,0.99008 3.9021,0.99008 1.4269,0 2.7082,-0.32032 3.873,-0.99008 1.1648,-0.64064 2.0675,-1.5725 2.7373,-2.7373 0.64064,-1.1648 0.99008,-2.5043 0.99008,-3.9894 0,-1.456 -0.34944,-2.7955 -0.99008,-3.9603 -0.66976,-1.1648 -1.5725,-2.0966 -2.7373,-2.7664 -1.1648,-0.64064 -2.4461,-0.99008 -3.873,-0.99008 -1.456,0 -2.7373,0.34944 -3.9021,0.99008 -1.1648,0.66976 -2.0675,1.6016 -2.7082,2.7664 -0.66976,1.1648 -0.99008,2.5043 -0.99008,3.9603 0,1.4851 0.32032,2.8246 0.99008,3.9894 0.64064,1.1648 1.5434,2.0966 2.7082,2.7373 z m 7.0179,-1.1357 c -0.93184,0.55328 -1.951,0.81536 -3.1158,0.81536 -1.1648,0 -2.2131,-0.26208 -3.145,-0.81536 -0.93184,-0.52416 -1.6598,-1.2813 -2.184,-2.2714 -0.52416,-0.96096 -0.78624,-2.0675 -0.78624,-3.3197 0,-1.223 0.26208,-2.3296 0.78624,-3.3197 0.52416,-0.96096 1.2522,-1.7181 2.184,-2.2714 0.93184,-0.52416 1.9802,-0.81536 3.145,-0.81536 1.1648,0 2.184,0.2912 3.1158,0.81536 0.93184,0.55328 1.6598,1.3104 2.184,2.2714 0.52416,0.99008 0.81536,2.0966 0.81536,3.3197 0,1.2522 -0.2912,2.3587 -0.81536,3.3197 -0.52416,0.99008 -1.2522,1.7472 -2.184,2.2714 z"
         style="font-variant-ligatures:none;fill:#ffffff;stroke:#ffffff;stroke-width:1.82000005"
         id="path8204" /><path
         d="m 340.53,432.78 c -1.1066,-1.1066 -2.6208,-1.6598 -4.5136,-1.6598 -1.4269,0 -2.6499,0.32032 -3.6982,0.90272 -1.0483,0.61152 -1.8054,1.456 -2.3296,2.5043 v -3.2906 h -1.3978 v 15.201 h 1.456 v -8.0954 c 0,-1.8054 0.49504,-3.2323 1.5434,-4.3098 1.0192,-1.0483 2.417,-1.6016 4.2224,-1.6016 1.5434,0 2.7373,0.46592 3.6109,1.3395 0.8736,0.90272 1.3104,2.2131 1.3104,3.9021 v 8.7651 h 1.456 v -8.8816 c 0,-2.0675 -0.55328,-3.6691 -1.6598,-4.7757 z"
         style="font-variant-ligatures:none;fill:#ffffff;stroke:#ffffff;stroke-width:1.82000005"
         id="path8206" /><path
         d="m 361.95,431.23 h -1.4851 l -6.1152,13.599 -6.057,-13.599 h -1.5434 l 6.8432,15.201 h 1.4851 z"
         style="font-variant-ligatures:none;fill:#ffffff;stroke:#ffffff;stroke-width:1.82000005"
         id="path8208" /><path
         d="m 375.44,444.71 c -0.84448,0.34944 -1.7763,0.52416 -2.7373,0.52416 -1.5725,0 -2.8829,-0.40768 -3.9894,-1.223 -1.1066,-0.81536 -1.8637,-1.9219 -2.2131,-3.3197 l 12.842,-2.5043 c -0.0874,-1.3395 -0.40768,-2.5334 -1.0483,-3.6109 -0.64064,-1.0774 -1.4851,-1.9219 -2.5334,-2.5334 -1.0483,-0.61152 -2.2422,-0.93184 -3.5526,-0.93184 -1.4269,0 -2.7082,0.34944 -3.8147,0.99008 -1.1357,0.66976 -2.0093,1.5725 -2.6499,2.7373 -0.64064,1.1648 -0.93184,2.5043 -0.93184,3.9894 0,1.5142 0.32032,2.8246 0.99008,3.9894 0.66976,1.1648 1.6016,2.0966 2.7955,2.7373 1.1939,0.66976 2.5334,0.99008 4.0768,0.99008 1.1648,0 2.2422,-0.20384 3.2614,-0.61152 0.96096,-0.40768 1.8054,-1.0192 2.4752,-1.8637 l -0.84448,-0.96096 c -0.5824,0.728 -1.2813,1.2522 -2.1258,1.6016 z m -6.319,-11.502 c 0.90272,-0.52416 1.9219,-0.81536 3.0867,-0.81536 0.99008,0 1.9219,0.23296 2.7373,0.66976 0.81536,0.4368 1.456,1.0483 1.9802,1.7763 0.49504,0.75712 0.81536,1.6016 0.96096,2.5043 l -11.59,2.2714 c -0.0582,-0.37856 -0.0582,-0.66976 -0.0582,-0.90272 0,-1.1939 0.23296,-2.3005 0.75712,-3.2614 0.49504,-0.96096 1.1939,-1.7181 2.1258,-2.2422 z"
         style="font-variant-ligatures:none;fill:#ffffff;stroke:#ffffff;stroke-width:1.82000005"
         id="path8210" /><path
         d="m 389.27,432.02 c -0.99008,0.5824 -1.7181,1.4269 -2.184,2.5334 v -3.3197 h -1.3978 v 15.201 h 1.456 v -7.9206 c 0,-1.8637 0.46592,-3.3488 1.4269,-4.3971 0.93184,-1.0483 2.2714,-1.6016 3.9603,-1.6016 l 0.34944,0.0291 v -1.4269 c -1.4269,0 -2.6208,0.32032 -3.6109,0.90272 z"
         style="font-variant-ligatures:none;fill:#ffffff;stroke:#ffffff;stroke-width:1.82000005"
         id="path8212" /><path
         d="m 407,445.47 -0.61152,-1.0192 c -0.64064,0.5824 -1.4269,0.84448 -2.3587,0.84448 -0.93184,0 -1.6598,-0.23296 -2.1258,-0.75712 -0.46592,-0.52416 -0.69888,-1.2813 -0.69888,-2.2714 v -9.79 h 4.8339 v -1.2522 h -4.8339 v -3.3197 h -1.456 v 3.3197 h -2.7955 v 1.2522 h 2.7955 v 9.9299 c 0,1.3104 0.34944,2.3296 1.0774,3.0576 0.69888,0.728 1.7181,1.0774 3.0576,1.0774 0.5824,0 1.1648,-0.0874 1.7181,-0.26208 0.55328,-0.17472 1.0192,-0.46592 1.3978,-0.81536 z"
         style="font-variant-ligatures:none;fill:#ffffff;stroke:#ffffff;stroke-width:1.82000005"
         id="path8214" /><path
         d="m 412.88,431.23 v 15.201 h 1.456 V 431.23 Z m -0.11648,-4.0186 c 0.23296,0.23296 0.49504,0.32032 0.84448,0.32032 0.32032,0 0.61152,-0.11648 0.84448,-0.34944 0.23296,-0.23296 0.34944,-0.49504 0.34944,-0.84448 0,-0.32032 -0.11648,-0.5824 -0.34944,-0.81536 -0.23296,-0.23296 -0.52416,-0.34944 -0.84448,-0.34944 -0.34944,0 -0.61152,0.11648 -0.84448,0.34944 -0.23296,0.23296 -0.34944,0.52416 -0.34944,0.84448 0,0.34944 0.11648,0.61152 0.34944,0.84448 z"
         style="font-variant-ligatures:none;fill:#ffffff;stroke:#ffffff;stroke-width:1.82000005"
         id="path8216" /><path
         d="m 434.26,432.78 c -1.1066,-1.1066 -2.6208,-1.6598 -4.5136,-1.6598 -1.4269,0 -2.6499,0.32032 -3.6982,0.90272 -1.0483,0.61152 -1.8054,1.456 -2.3296,2.5043 v -3.2906 h -1.3978 v 15.201 h 1.456 v -8.0954 c 0,-1.8054 0.49504,-3.2323 1.5434,-4.3098 1.0192,-1.0483 2.417,-1.6016 4.2224,-1.6016 1.5434,0 2.7373,0.46592 3.6109,1.3395 0.8736,0.90272 1.3104,2.2131 1.3104,3.9021 v 8.7651 h 1.456 v -8.8816 c 0,-2.0675 -0.55328,-3.6691 -1.6598,-4.7757 z"
         style="font-variant-ligatures:none;fill:#ffffff;stroke:#ffffff;stroke-width:1.82000005"
         id="path8218" /><path
         d="m 457.5,431.23 h -1.3978 v 3.4362 c -0.61152,-1.1066 -1.4851,-1.9802 -2.5917,-2.6208 -1.1357,-0.61152 -2.3878,-0.93184 -3.7856,-0.93184 -1.4269,0 -2.7082,0.32032 -3.873,0.93184 -1.1648,0.64064 -2.0675,1.5142 -2.7082,2.6208 -0.66976,1.1357 -0.99008,2.417 -0.99008,3.8147 0,1.4269 0.32032,2.7082 0.99008,3.8147 0.64064,1.1357 1.5434,2.0093 2.7082,2.6499 1.1648,0.64064 2.4461,0.93184 3.873,0.93184 1.3686,0 2.6208,-0.2912 3.7274,-0.90272 1.1066,-0.5824 1.951,-1.456 2.5917,-2.5626 v 2.5626 c 0,2.0384 -0.49504,3.5235 -1.456,4.4845 -0.99008,0.96096 -2.4752,1.4269 -4.4845,1.4269 -1.223,0 -2.3587,-0.17472 -3.407,-0.5824 -1.0774,-0.37856 -1.9802,-0.93184 -2.7373,-1.6307 l -0.78624,1.1066 c 0.75712,0.75712 1.7472,1.3686 2.9994,1.7763 1.223,0.4368 2.5626,0.64064 3.9603,0.64064 2.4461,0 4.3098,-0.5824 5.5328,-1.8054 1.223,-1.1939 1.8346,-3.0576 1.8346,-5.591 z m -4.4554,12.58 c -0.96096,0.52416 -2.0384,0.75712 -3.2032,0.75712 -1.1939,0 -2.2714,-0.23296 -3.2032,-0.75712 -0.93184,-0.52416 -1.689,-1.223 -2.2131,-2.1549 -0.52416,-0.93184 -0.78624,-1.9802 -0.78624,-3.1741 0,-1.1648 0.26208,-2.2131 0.78624,-3.145 0.52416,-0.90272 1.2813,-1.6016 2.2131,-2.1258 0.93184,-0.52416 2.0093,-0.78624 3.2032,-0.78624 1.1648,0 2.2422,0.26208 3.2032,0.78624 0.93184,0.52416 1.689,1.223 2.2131,2.1258 0.52416,0.93184 0.81536,1.9802 0.81536,3.145 0,1.1939 -0.2912,2.2422 -0.81536,3.1741 -0.52416,0.93184 -1.2813,1.6307 -2.2131,2.1549 z"
         style="font-variant-ligatures:none;fill:#ffffff;stroke:#ffffff;stroke-width:1.82000005"
         id="path8220" /><path
         d="m 476.66,445.24 c 1.6016,0.90272 3.407,1.3395 5.4163,1.3395 1.456,0 2.7955,-0.23296 4.0477,-0.728 1.2522,-0.46592 2.3296,-1.1939 3.2032,-2.1258 l -0.93184,-0.96096 c -1.6598,1.6307 -3.7565,2.4461 -6.2608,2.4461 -1.7181,0 -3.2614,-0.37856 -4.6592,-1.1648 -1.3978,-0.75712 -2.5043,-1.8346 -3.2906,-3.2032 -0.81536,-1.3686 -1.1939,-2.912 -1.1939,-4.601 0,-1.689 0.37856,-3.2032 1.1939,-4.5718 0.78624,-1.3686 1.8928,-2.4461 3.2906,-3.2323 1.3978,-0.75712 2.9411,-1.1648 4.6592,-1.1648 2.5334,0 4.6301,0.81536 6.2608,2.417 l 0.93184,-0.96096 c -0.8736,-0.93184 -1.951,-1.6307 -3.1741,-2.0966 -1.2522,-0.46592 -2.6208,-0.728 -4.0768,-0.728 -2.0093,0 -3.8147,0.46592 -5.4163,1.3395 -1.6016,0.90272 -2.8538,2.1258 -3.7856,3.6982 -0.93184,1.5725 -1.3686,3.3488 -1.3686,5.2998 0,1.9802 0.4368,3.7274 1.3686,5.2998 0.93184,1.5725 2.184,2.8246 3.7856,3.6982 z"
         style="font-variant-ligatures:none;fill:#ffffff;stroke:#ffffff;stroke-width:1.82000005"
         id="path8222" /><path
         d="m 497.04,445.56 c 1.1648,0.66976 2.4461,0.99008 3.9021,0.99008 1.4269,0 2.7082,-0.32032 3.873,-0.99008 1.1648,-0.64064 2.0675,-1.5725 2.7373,-2.7373 0.64064,-1.1648 0.99008,-2.5043 0.99008,-3.9894 0,-1.456 -0.34944,-2.7955 -0.99008,-3.9603 -0.66976,-1.1648 -1.5725,-2.0966 -2.7373,-2.7664 -1.1648,-0.64064 -2.4461,-0.99008 -3.873,-0.99008 -1.456,0 -2.7373,0.34944 -3.9021,0.99008 -1.1648,0.66976 -2.0675,1.6016 -2.7082,2.7664 -0.66976,1.1648 -0.99008,2.5043 -0.99008,3.9603 0,1.4851 0.32032,2.8246 0.99008,3.9894 0.64064,1.1648 1.5434,2.0966 2.7082,2.7373 z m 7.0179,-1.1357 c -0.93184,0.55328 -1.951,0.81536 -3.1158,0.81536 -1.1648,0 -2.2131,-0.26208 -3.145,-0.81536 -0.93184,-0.52416 -1.6598,-1.2813 -2.184,-2.2714 -0.52416,-0.96096 -0.78624,-2.0675 -0.78624,-3.3197 0,-1.223 0.26208,-2.3296 0.78624,-3.3197 0.52416,-0.96096 1.2522,-1.7181 2.184,-2.2714 0.93184,-0.52416 1.9802,-0.81536 3.145,-0.81536 1.1648,0 2.184,0.2912 3.1158,0.81536 0.93184,0.55328 1.6598,1.3104 2.184,2.2714 0.52416,0.99008 0.81536,2.0966 0.81536,3.3197 0,1.2522 -0.2912,2.3587 -0.81536,3.3197 -0.52416,0.99008 -1.2522,1.7472 -2.184,2.2714 z"
         style="font-variant-ligatures:none;fill:#ffffff;stroke:#ffffff;stroke-width:1.82000005"
         id="path8224" /><path
         d="m 516.57,429.02 c 0,-2.0384 0.93184,-3.0576 2.8538,-3.0576 0.93184,0 1.7181,0.2912 2.3587,0.84448 l 0.5824,-1.1066 c -0.34944,-0.32032 -0.81536,-0.55328 -1.3395,-0.728 -0.52416,-0.17472 -1.0774,-0.26208 -1.6598,-0.26208 -1.3395,0 -2.3878,0.37856 -3.1158,1.1357 -0.75712,0.75712 -1.1066,1.7763 -1.1066,3.0576 v 2.3296 h -2.7955 v 1.2522 h 2.7955 v 13.948 h 1.456 v -13.95 h 4.8339 v -1.2522 h -4.863 z"
         style="font-variant-ligatures:none;fill:#ffffff;stroke:#ffffff;stroke-width:1.82000005"
         id="path8226" /><path
         d="m 527.95,429.02 c 0,-2.0384 0.93184,-3.0576 2.8538,-3.0576 0.93184,0 1.7181,0.2912 2.3587,0.84448 l 0.5824,-1.1066 c -0.34944,-0.32032 -0.81536,-0.55328 -1.3395,-0.728 -0.52416,-0.17472 -1.0774,-0.26208 -1.6598,-0.26208 -1.3395,0 -2.3878,0.37856 -3.1158,1.1357 -0.75712,0.75712 -1.1066,1.7763 -1.1066,3.0576 v 2.3296 h -2.7955 v 1.2522 h 2.7955 v 13.948 h 1.456 v -13.95 h 4.8339 v -1.2522 h -4.863 z"
         style="font-variant-ligatures:none;fill:#ffffff;stroke:#ffffff;stroke-width:1.82000005"
         id="path8228" /><path
         d="m 546.29,444.71 c -0.84448,0.34944 -1.7763,0.52416 -2.7373,0.52416 -1.5725,0 -2.8829,-0.40768 -3.9894,-1.223 -1.1066,-0.81536 -1.8637,-1.9219 -2.2131,-3.3197 l 12.842,-2.5043 c -0.0874,-1.3395 -0.40768,-2.5334 -1.0483,-3.6109 -0.64064,-1.0774 -1.4851,-1.9219 -2.5334,-2.5334 -1.0483,-0.61152 -2.2422,-0.93184 -3.5526,-0.93184 -1.4269,0 -2.7082,0.34944 -3.8147,0.99008 -1.1357,0.66976 -2.0093,1.5725 -2.6499,2.7373 -0.64064,1.1648 -0.93184,2.5043 -0.93184,3.9894 0,1.5142 0.32032,2.8246 0.99008,3.9894 0.66976,1.1648 1.6016,2.0966 2.7955,2.7373 1.1939,0.66976 2.5334,0.99008 4.0768,0.99008 1.1648,0 2.2422,-0.20384 3.2614,-0.61152 0.96096,-0.40768 1.8054,-1.0192 2.4752,-1.8637 l -0.84448,-0.96096 c -0.5824,0.728 -1.2813,1.2522 -2.1258,1.6016 z m -6.319,-11.502 c 0.90272,-0.52416 1.9219,-0.81536 3.0867,-0.81536 0.99008,0 1.9219,0.23296 2.7373,0.66976 0.81536,0.4368 1.456,1.0483 1.9802,1.7763 0.49504,0.75712 0.81536,1.6016 0.96096,2.5043 l -11.59,2.2714 c -0.0582,-0.37856 -0.0582,-0.66976 -0.0582,-0.90272 0,-1.1939 0.23296,-2.3005 0.75712,-3.2614 0.49504,-0.96096 1.1939,-1.7181 2.1258,-2.2422 z"
         style="font-variant-ligatures:none;fill:#ffffff;stroke:#ffffff;stroke-width:1.82000005"
         id="path8230" /><path
         d="m 565.51,444.71 c -0.84448,0.34944 -1.7763,0.52416 -2.7373,0.52416 -1.5725,0 -2.8829,-0.40768 -3.9894,-1.223 -1.1066,-0.81536 -1.8637,-1.9219 -2.2131,-3.3197 l 12.842,-2.5043 c -0.0874,-1.3395 -0.40768,-2.5334 -1.0483,-3.6109 -0.64064,-1.0774 -1.4851,-1.9219 -2.5334,-2.5334 -1.0483,-0.61152 -2.2422,-0.93184 -3.5526,-0.93184 -1.4269,0 -2.7082,0.34944 -3.8147,0.99008 -1.1357,0.66976 -2.0093,1.5725 -2.6499,2.7373 -0.64064,1.1648 -0.93184,2.5043 -0.93184,3.9894 0,1.5142 0.32032,2.8246 0.99008,3.9894 0.66976,1.1648 1.6016,2.0966 2.7955,2.7373 1.1939,0.66976 2.5334,0.99008 4.0768,0.99008 1.1648,0 2.2422,-0.20384 3.2614,-0.61152 0.96096,-0.40768 1.8054,-1.0192 2.4752,-1.8637 l -0.84448,-0.96096 c -0.5824,0.728 -1.2813,1.2522 -2.1258,1.6016 z m -6.32,-11.5 c 0.90272,-0.52416 1.9219,-0.81536 3.0867,-0.81536 0.99008,0 1.9219,0.23296 2.7373,0.66976 0.81536,0.4368 1.456,1.0483 1.9802,1.7763 0.49504,0.75712 0.81536,1.6016 0.96096,2.5043 l -11.59,2.2714 c -0.0582,-0.37856 -0.0582,-0.66976 -0.0582,-0.90272 0,-1.1939 0.23296,-2.3005 0.75712,-3.2614 0.49504,-0.96096 1.1939,-1.7181 2.1258,-2.2422 z"
         style="font-variant-ligatures:none;fill:#ffffff;stroke:#ffffff;stroke-width:1.82000005"
         id="path8232" /><path
         d="m 583.27,431.23 v 15.201 h 1.456 V 431.23 Z m -0.11648,-4.0186 c 0.23296,0.23296 0.49504,0.32032 0.84448,0.32032 0.32032,0 0.61152,-0.11648 0.84448,-0.34944 0.23296,-0.23296 0.34944,-0.49504 0.34944,-0.84448 0,-0.32032 -0.11648,-0.5824 -0.34944,-0.81536 -0.23296,-0.23296 -0.52416,-0.34944 -0.84448,-0.34944 -0.34944,0 -0.61152,0.11648 -0.84448,0.34944 -0.23296,0.23296 -0.34944,0.52416 -0.34944,0.84448 0,0.34944 0.11648,0.61152 0.34944,0.84448 z"
         style="font-variant-ligatures:none;fill:#ffffff;stroke:#ffffff;stroke-width:1.82000005"
         id="path8234" /><path
         d="m 604.66,432.78 c -1.1066,-1.1066 -2.6208,-1.6598 -4.5136,-1.6598 -1.4269,0 -2.6499,0.32032 -3.6982,0.90272 -1.0483,0.61152 -1.8054,1.456 -2.3296,2.5043 v -3.2906 h -1.3978 v 15.201 h 1.456 v -8.0954 c 0,-1.8054 0.49504,-3.2323 1.5434,-4.3098 1.0192,-1.0483 2.417,-1.6016 4.2224,-1.6016 1.5434,0 2.7373,0.46592 3.6109,1.3395 0.8736,0.90272 1.3104,2.2131 1.3104,3.9021 v 8.7651 h 1.456 v -8.8816 c 0,-2.0675 -0.55328,-3.6691 -1.6598,-4.7757 z"
         style="font-variant-ligatures:none;fill:#ffffff;stroke:#ffffff;stroke-width:1.82000005"
         id="path8236" /><path
         d="m 621.7,445.47 -0.61152,-1.0192 c -0.64064,0.5824 -1.4269,0.84448 -2.3587,0.84448 -0.93184,0 -1.6598,-0.23296 -2.1258,-0.75712 -0.46592,-0.52416 -0.69888,-1.2813 -0.69888,-2.2714 v -9.79 h 4.8339 v -1.2522 h -4.8339 v -3.3197 h -1.456 v 3.3197 h -2.7955 v 1.2522 h 2.7955 v 9.9299 c 0,1.3104 0.34944,2.3296 1.0774,3.0576 0.69888,0.728 1.7181,1.0774 3.0576,1.0774 0.5824,0 1.1648,-0.0874 1.7181,-0.26208 0.55328,-0.17472 1.0192,-0.46592 1.3978,-0.81536 z"
         style="font-variant-ligatures:none;fill:#ffffff;stroke:#ffffff;stroke-width:1.82000005"
         id="path8238" /><path
         d="m 629.05,445.56 c 1.1648,0.66976 2.4461,0.99008 3.9021,0.99008 1.4269,0 2.7082,-0.32032 3.873,-0.99008 1.1648,-0.64064 2.0675,-1.5725 2.7373,-2.7373 0.64064,-1.1648 0.99008,-2.5043 0.99008,-3.9894 0,-1.456 -0.34944,-2.7955 -0.99008,-3.9603 -0.66976,-1.1648 -1.5725,-2.0966 -2.7373,-2.7664 -1.1648,-0.64064 -2.4461,-0.99008 -3.873,-0.99008 -1.456,0 -2.7373,0.34944 -3.9021,0.99008 -1.1648,0.66976 -2.0675,1.6016 -2.7082,2.7664 -0.66976,1.1648 -0.99008,2.5043 -0.99008,3.9603 0,1.4851 0.32032,2.8246 0.99008,3.9894 0.64064,1.1648 1.5434,2.0966 2.7082,2.7373 z m 7.0179,-1.1357 c -0.93184,0.55328 -1.951,0.81536 -3.1158,0.81536 -1.1648,0 -2.2131,-0.26208 -3.145,-0.81536 -0.93184,-0.52416 -1.6598,-1.2813 -2.184,-2.2714 -0.52416,-0.96096 -0.78624,-2.0675 -0.78624,-3.3197 0,-1.223 0.26208,-2.3296 0.78624,-3.3197 0.52416,-0.96096 1.2522,-1.7181 2.184,-2.2714 0.93184,-0.52416 1.9802,-0.81536 3.145,-0.81536 1.1648,0 2.184,0.2912 3.1158,0.81536 0.93184,0.55328 1.6598,1.3104 2.184,2.2714 0.52416,0.99008 0.81536,2.0966 0.81536,3.3197 0,1.2522 -0.2912,2.3587 -0.81536,3.3197 -0.52416,0.99008 -1.2522,1.7472 -2.184,2.2714 z"
         style="font-variant-ligatures:none;fill:#ffffff;stroke:#ffffff;stroke-width:1.82000005"
         id="path8240" /><path
         d="m 658.04,445.24 c 1.6016,0.90272 3.407,1.3395 5.4163,1.3395 1.456,0 2.7955,-0.23296 4.0477,-0.728 1.2522,-0.46592 2.3296,-1.1939 3.2032,-2.1258 l -0.93184,-0.96096 c -1.6598,1.6307 -3.7565,2.4461 -6.2608,2.4461 -1.7181,0 -3.2614,-0.37856 -4.6592,-1.1648 -1.3978,-0.75712 -2.5043,-1.8346 -3.2906,-3.2032 -0.81536,-1.3686 -1.1939,-2.912 -1.1939,-4.601 0,-1.689 0.37856,-3.2032 1.1939,-4.5718 0.78624,-1.3686 1.8928,-2.4461 3.2906,-3.2323 1.3978,-0.75712 2.9411,-1.1648 4.6592,-1.1648 2.5334,0 4.6301,0.81536 6.2608,2.417 l 0.93184,-0.96096 c -0.8736,-0.93184 -1.951,-1.6307 -3.1741,-2.0966 -1.2522,-0.46592 -2.6208,-0.728 -4.0768,-0.728 -2.0093,0 -3.8147,0.46592 -5.4163,1.3395 -1.6016,0.90272 -2.8538,2.1258 -3.7856,3.6982 -0.93184,1.5725 -1.3686,3.3488 -1.3686,5.2998 0,1.9802 0.4368,3.7274 1.3686,5.2998 0.93184,1.5725 2.184,2.8246 3.7856,3.6982 z"
         style="font-variant-ligatures:none;fill:#ffffff;stroke:#ffffff;stroke-width:1.82000005"
         id="path8242" /><path
         d="m 678.42,445.56 c 1.1648,0.66976 2.4461,0.99008 3.9021,0.99008 1.4269,0 2.7082,-0.32032 3.873,-0.99008 1.1648,-0.64064 2.0675,-1.5725 2.7373,-2.7373 0.64064,-1.1648 0.99008,-2.5043 0.99008,-3.9894 0,-1.456 -0.34944,-2.7955 -0.99008,-3.9603 -0.66976,-1.1648 -1.5725,-2.0966 -2.7373,-2.7664 -1.1648,-0.64064 -2.4461,-0.99008 -3.873,-0.99008 -1.456,0 -2.7373,0.34944 -3.9021,0.99008 -1.1648,0.66976 -2.0675,1.6016 -2.7082,2.7664 -0.66976,1.1648 -0.99008,2.5043 -0.99008,3.9603 0,1.4851 0.32032,2.8246 0.99008,3.9894 0.64064,1.1648 1.5434,2.0966 2.7082,2.7373 z m 7.0179,-1.1357 c -0.93184,0.55328 -1.951,0.81536 -3.1158,0.81536 -1.1648,0 -2.2131,-0.26208 -3.145,-0.81536 -0.93184,-0.52416 -1.6598,-1.2813 -2.184,-2.2714 -0.52416,-0.96096 -0.78624,-2.0675 -0.78624,-3.3197 0,-1.223 0.26208,-2.3296 0.78624,-3.3197 0.52416,-0.96096 1.2522,-1.7181 2.184,-2.2714 0.93184,-0.52416 1.9802,-0.81536 3.145,-0.81536 1.1648,0 2.184,0.2912 3.1158,0.81536 0.93184,0.55328 1.6598,1.3104 2.184,2.2714 0.52416,0.99008 0.81536,2.0966 0.81536,3.3197 0,1.2522 -0.2912,2.3587 -0.81536,3.3197 -0.52416,0.99008 -1.2522,1.7472 -2.184,2.2714 z"
         style="font-variant-ligatures:none;fill:#ffffff;stroke:#ffffff;stroke-width:1.82000005"
         id="path8244" /><path
         d="m 709.74,424.83 h -1.456 v 9.9299 c -0.64064,-1.1357 -1.4851,-2.0384 -2.5626,-2.679 -1.0774,-0.64064 -2.3005,-0.96096 -3.64,-0.96096 -1.4269,0 -2.7082,0.34944 -3.8438,0.99008 -1.1648,0.64064 -2.0675,1.5725 -2.7082,2.7373 -0.64064,1.1648 -0.96096,2.5043 -0.96096,3.9894 0,1.5142 0.32032,2.8246 0.96096,3.9894 0.64064,1.1648 1.5434,2.0966 2.7082,2.7373 1.1357,0.66976 2.417,0.99008 3.8438,0.99008 1.3686,0 2.5917,-0.32032 3.6982,-0.96096 1.0774,-0.64064 1.9219,-1.5434 2.5334,-2.7373 v 3.5818 h 1.4269 z m -4.4554,19.598 c -0.93184,0.55328 -1.951,0.81536 -3.1158,0.81536 -1.1648,0 -2.2131,-0.26208 -3.145,-0.81536 -0.93184,-0.52416 -1.6598,-1.2813 -2.184,-2.2714 -0.52416,-0.96096 -0.78624,-2.0675 -0.78624,-3.3197 0,-1.223 0.26208,-2.3296 0.78624,-3.3197 0.52416,-0.96096 1.2522,-1.7181 2.184,-2.2714 0.93184,-0.52416 1.9802,-0.81536 3.145,-0.81536 1.1648,0 2.184,0.2912 3.1158,0.81536 0.93184,0.55328 1.6598,1.3104 2.184,2.2714 0.52416,0.99008 0.81536,2.0966 0.81536,3.3197 0,1.2522 -0.2912,2.3587 -0.81536,3.3197 -0.52416,0.99008 -1.2522,1.7472 -2.184,2.2714 z"
         style="font-variant-ligatures:none;fill:#ffffff;stroke:#ffffff;stroke-width:1.82000005"
         id="path8246" /><path
         d="m 726.7,444.71 c -0.84448,0.34944 -1.7763,0.52416 -2.7373,0.52416 -1.5725,0 -2.8829,-0.40768 -3.9894,-1.223 -1.1066,-0.81536 -1.8637,-1.9219 -2.2131,-3.3197 l 12.842,-2.5043 c -0.0874,-1.3395 -0.40768,-2.5334 -1.0483,-3.6109 -0.64064,-1.0774 -1.4851,-1.9219 -2.5334,-2.5334 -1.0483,-0.61152 -2.2422,-0.93184 -3.5526,-0.93184 -1.4269,0 -2.7082,0.34944 -3.8147,0.99008 -1.1357,0.66976 -2.0093,1.5725 -2.6499,2.7373 -0.64064,1.1648 -0.93184,2.5043 -0.93184,3.9894 0,1.5142 0.32032,2.8246 0.99008,3.9894 0.66976,1.1648 1.6016,2.0966 2.7955,2.7373 1.1939,0.66976 2.5334,0.99008 4.0768,0.99008 1.1648,0 2.2422,-0.20384 3.2614,-0.61152 0.96096,-0.40768 1.8054,-1.0192 2.4752,-1.8637 l -0.84448,-0.96096 c -0.5824,0.728 -1.2813,1.2522 -2.1258,1.6016 z m -6.319,-11.502 c 0.90272,-0.52416 1.9219,-0.81536 3.0867,-0.81536 0.99008,0 1.9219,0.23296 2.7373,0.66976 0.81536,0.4368 1.456,1.0483 1.9802,1.7763 0.49504,0.75712 0.81536,1.6016 0.96096,2.5043 l -11.59,2.2714 c -0.0582,-0.37856 -0.0582,-0.66976 -0.0582,-0.90272 0,-1.1939 0.23296,-2.3005 0.75712,-3.2614 0.49504,-0.96096 1.1939,-1.7181 2.1258,-2.2422 z"
         style="font-variant-ligatures:none;fill:#ffffff;stroke:#ffffff;stroke-width:1.82000005"
         id="path8248" /><path
         d="m 736.69,426.05 0.2912,14.531 h 1.1066 l 0.2912,-14.531 z m 0,20.151 c 0.23296,0.23296 0.49504,0.34944 0.84448,0.34944 0.34944,0 0.64064,-0.11648 0.8736,-0.34944 0.23296,-0.23296 0.34944,-0.49504 0.34944,-0.84448 0,-0.32032 -0.11648,-0.61152 -0.34944,-0.84448 -0.23296,-0.23296 -0.52416,-0.34944 -0.8736,-0.34944 -0.34944,0 -0.61152,0.11648 -0.84448,0.34944 -0.23296,0.23296 -0.34944,0.52416 -0.34944,0.84448 0,0.34944 0.11648,0.61152 0.34944,0.84448 z"
         style="font-variant-ligatures:none;fill:#ffffff;stroke:#ffffff;stroke-width:1.82000005"
         id="path8250" /><path
         d="m 342.62,404.91 h 19.263 v -11.138 h -13.759 c -1.0483,0 -1.9656,-0.91728 -1.9656,-1.9656 v -76.003 h -11.52 v 81.114 c 0,4.5864 3.407,7.9934 7.9934,7.9934 z"
         style="font-variant-ligatures:normal;fill:#a187c9;stroke-width:0"
         id="path8253" /><path
         d="m 373.53,404.91 h 11.532 v -35.381 l 12.318,-53.726 h -11.532 l -4.1933,18.346 -1.9656,15.594 h -0.78624 l -1.9656,-15.594 -4.1933,-18.346 h -11.532 l 12.318,53.595 z"
         style="font-variant-ligatures:normal;fill:#a78ccf;stroke-width:0"
         id="path8255" /><path
         d="m 411.9,404.91 h 11.532 v -77.969 h 9.959 v -11.138 h -31.45 v 11.138 h 9.959 z"
         style="font-variant-ligatures:normal;fill:#ac92d4;stroke-width:0"
         id="path8257" /><path
         d="m 447.04,404.91 h 19.263 v -11.138 h -13.759 c -1.0483,0 -1.9656,-0.91728 -1.9656,-1.9656 v -25.946 h 13.104 v -11.138 h -13.104 v -27.78 h 15.725 v -11.138 h -27.25 v 81.114 c 0,4.5864 3.407,7.9934 7.9934,7.9934 z"
         style="font-variant-ligatures:normal;fill:#b297da;stroke-width:0"
         id="path8259" /><path
         d="m 470.75,404.91 h 11.532 l 2.2277,-9.4349 3.6691,-23.194 h 1.3104 l 3.6691,23.194 2.2277,9.4349 h 11.532 l -10.483,-44.554 10.483,-44.554 h -11.532 l -3.9312,16.511 -2.2277,16.511 h -0.78624 l -2.2277,-16.38 -3.9312,-16.642 h -11.532 l 10.483,44.554 z"
         style="font-variant-ligatures:normal;fill:#b79cdf;stroke-width:0"
         id="path8261" /><path
         d="m 524.53,404.91 h 53.202 V 393.772 H 524.53 Z m 0,-17.69 h 11.532 v -18.084 l -2.4898,-29.746 -0.52416,-3.0139 h 1.3104 l 12.187,50.844 h 9.1728 l 12.187,-50.844 h 1.3104 l -0.52416,3.0139 -2.4898,29.746 v 18.084 h 11.532 v -71.417 h -10.09 c -3.8002,0 -6.683,2.4898 -7.4693,6.2899 l -7.6003,36.953 -1.4414,6.1589 -1.4414,-6.0278 -7.6003,-37.084 c -0.78624,-3.8002 -3.6691,-6.2899 -7.4693,-6.2899 h -10.09 z"
         style="font-variant-ligatures:normal;fill:#7d45d8;stroke-width:0"
         id="path8263" /><path
         d="m 591.39,404.91 h 19.263 v -11.138 h -13.759 c -1.0483,0 -1.9656,-0.91728 -1.9656,-1.9656 v -25.946 h 13.104 v -11.138 h -13.104 v -27.78 h 15.725 v -11.138 h -27.256 v 81.114 c 0,4.5864 3.407,7.9934 7.9934,7.9934 z"
         style="font-variant-ligatures:normal;fill:#7d45d8;stroke-width:0"
         id="path8265" /><path
         d="m 633.19,327.07 c 3.0139,0 5.2416,2.4898 5.2416,5.5037 v 55.561 c 0,3.0139 -2.2277,5.5037 -5.2416,5.5037 h -5.2416 v -66.56 z m -16.773,77.838 h 16.773 c 9.3038,0 16.773,-7.4693 16.773,-16.773 v -55.561 c 0,-9.3038 -7.4693,-16.773 -16.773,-16.773 h -16.773 z"
         style="font-variant-ligatures:normal;fill:#7d45d8;stroke-width:0"
         id="path8267" /><path
         d="m 666.31,378.83 c 0,-3.5381 2.6208,-5.2416 6.2899,-5.2416 3.6691,0 6.2899,1.7035 6.2899,5.2416 v 9.0418 h -12.58 z m -10.483,26.077 h 10.483 v -7.2072 h 12.58 v 7.2072 h 10.483 v -25.815 c 0,-9.3038 -7.4693,-15.463 -16.773,-15.463 -9.3038,0 -16.773,6.1589 -16.773,15.463 z m 0,-48.485 h 33.546 v -9.828 h -11.532 v -20.966 h 11.532 V 315.8 h -33.546 v 9.828 h 11.532 v 20.966 h -11.532 z"
         style="font-variant-ligatures:normal;fill:#7d45d8;stroke-width:0"
         id="path8269" /></g></g></svg>